# xmcd
#
# Track frame offsets:
#	150
#	14433
#	36312
#	53189
#	73360
#	99547
#
# Disc length: 1447 seconds
#
# Revision: 0
# Processed by: cddbd v1.5.1PL2 Copyright (c) Steve Scherf et al.
# Submitted via: dBpowerAMP V4.0
#
DISCID=5305a506
DTITLE=Shakey Ground - Shakey Ground
DYEAR=2004
DGENRE=Blues
TTITLE0=Packin' House Blues (Bonn)
TTITLE1=Cabin Fever (Bonn)
TTITLE2=Oh Pretty Woman (Williams)
TTITLE3=The Tiki Bar Is Open (Hiatt)
TTITLE4=Freeway Blues (Waked)
TTITLE5=Hypnotized (Bonn)
EXTD=
EXTT0=
EXTT1=
EXTT2=
EXTT3=
EXTT4=
EXTT5=
PLAYORDER=
